# xmcd
# Copyright (C) 1995-1998 Ti Kan
#
# Track frame offsets:
#       150
#       11710
#       37589
#
# Disc length: 1041 seconds
#
# Revision: 0
# Processed by: cddbd v1.5.2PL0 Copyright (c) Steve Scherf et al.
# Submitted via: CD-Transfer v1.0
#
DISCID=14040f03
DTITLE=Gretta Sami - Gretta - H. Medaniæ
DYEAR=08
DGENRE=
TTITLE0=Sami
TTITLE1=Dugo
TTITLE2=
EXTD=
EXTT0=
EXTT1=
EXTT2=
PLAYORDER=
